<svg width="4.59em" height="1em" style="" version="1.1" xmlns="http://www.w3.org/2000/svg" xmlns:xlink="http://www.w3.org/1999/xlink"><style  type="text/css">*, ::before, ::after { --tw-border-spacing-x: 0; --tw-border-spacing-y: 0; --tw-translate-x: 0; --tw-translate-y: 0; --tw-rotate: 0; --tw-skew-x: 0; --tw-skew-y: 0; --tw-scale-x: 1; --tw-scale-y: 1; --tw-pan-x: ; --tw-pan-y: ; --tw-pinch-zoom: ; --tw-scroll-snap-strictness: proximity; --tw-gradient-from-position: ; --tw-gradient-via-position: ; --tw-gradient-to-position: ; --tw-ordinal: ; --tw-slashed-zero: ; --tw-numeric-figure: ; --tw-numeric-spacing: ; --tw-numeric-fraction: ; --tw-ring-inset: ; --tw-ring-offset-width: 0px; --tw-ring-offset-color: #fff; --tw-ring-color: rgb(59 130 246 / .5); --tw-ring-offset-shadow: 0 0 #0000; --tw-ring-shadow: 0 0 #0000; --tw-shadow: 0 0 #0000; --tw-shadow-colored: 0 0 #0000; --tw-blur: ; --tw-brightness: ; --tw-contrast: ; --tw-grayscale: ; --tw-hue-rotate: ; --tw-invert: ; --tw-saturate: ; --tw-sepia: ; --tw-drop-shadow: ; --tw-backdrop-blur: ; --tw-backdrop-brightness: ; --tw-backdrop-contrast: ; --tw-backdrop-grayscale: ; --tw-backdrop-hue-rotate: ; --tw-backdrop-invert: ; --tw-backdrop-opacity: ; --tw-backdrop-saturate: ; --tw-backdrop-sepia: ; --tw-contain-size: ; --tw-contain-layout: ; --tw-contain-paint: ; --tw-contain-style: ; }
*, ::before, ::after { box-sizing: border-box; border-width: 0px; border-style: solid; border-color: rgb(229, 231, 235); }
img, svg, video, canvas, audio, iframe, embed, object { display: block; vertical-align: middle; }
.h-5 { height: 1.25rem; }
.w-auto { width: auto; }</style><svg aria-label="NordVPN" data-astro-cid-22hyrgsp="true" class="w-auto h-5 sm:h-8" data-icon="logos/nordvpn">   <symbol id="ai:local:logos/nordvpn" viewBox="0 0 142 31"><path fill="currentColor" fill-rule="evenodd" d="M139.996 13A1.994 1.994 0 0 1 138 11a2 2 0 1 1 4 0 2 2 0 0 1-2.004 2m0-3.636c-.896 0-1.617.727-1.617 1.636 0 .91.721 1.636 1.617 1.636.89 0 1.625-.727 1.625-1.636 0-.91-.736-1.636-1.625-1.636m-.298 1.956v.822h-.474V9.858h.904c.444 0 .816.233.816.72a.66.66 0 0 1-.438.655l.474.909h-.517l-.416-.822zm.765-.727c0-.226-.19-.284-.372-.284h-.393v.567h.4c.175 0 .365-.072.365-.283M59.18 24l-6.84-10.26V24H49.3V9.123h3.515l6.46 9.709V9.123h3.04V24zm4.946-5.054c0-3.021 2.489-5.32 5.567-5.32 3.059 0 5.51 2.242 5.51 5.263 0 3.059-2.489 5.339-5.548 5.339-3.078 0-5.529-2.223-5.529-5.282m3.04-.038c0 1.539 1.121 2.603 2.508 2.603s2.489-1.064 2.489-2.603c0-1.52-1.121-2.584-2.508-2.584s-2.489 1.064-2.489 2.584m15.304-5.054v2.907c-.399-.076-.817-.076-.95-.076-1.425 0-2.413.988-2.413 2.869V24H76.2V13.854h2.812v1.482h.038c.551-1.159 1.577-1.596 2.622-1.596.228 0 .589.057.798.114M91.031 24v-1.292h-.038c-.95 1.387-2.47 1.482-3.154 1.482-2.945 0-4.826-2.546-4.826-5.282 0-2.565 1.957-5.244 4.864-5.244.589 0 1.995.114 3.04 1.349h.038V8.534H93.9V24zm0-5.092c0-1.52-1.121-2.565-2.508-2.565s-2.508 1.045-2.508 2.565c0 1.539 1.121 2.603 2.508 2.603s2.508-1.064 2.508-2.603M100.199 24 94.822 9.123h3.325l3.857 11.305 3.876-11.305h3.268L103.752 24zm21.062-10.108c0 3.287-2.318 4.864-5.434 4.864h-2.337V24h-3.078V9.123h5.529c2.983 0 5.32 1.615 5.32 4.769m-3.097.076c0-1.444-1.216-1.938-2.489-1.938h-2.185v3.857h2.204c1.216 0 2.47-.532 2.47-1.919M132.69 24l-6.84-10.26V24h-3.04V9.123h3.515l6.46 9.709V9.123h3.04V24zM3.71 31A19.47 19.47 0 0 1 0 19.534C0 8.745 8.728 0 19.494 0s19.494 8.745 19.494 19.534A19.47 19.47 0 0 1 35.278 31l-9.363-15.235-.904 1.53.917 4.254-6.434-11.03-3.98 6.733.927 4.297-3.373-5.776z"/></symbol><use href="#ai:local:logos/nordvpn"/>  </svg></svg>