<svg width="3.09em" height="1em" style="" version="1.1" xmlns="http://www.w3.org/2000/svg" xmlns:xlink="http://www.w3.org/1999/xlink"><style  type="text/css">*, ::before, ::after { --tw-border-spacing-x: 0; --tw-border-spacing-y: 0; --tw-translate-x: 0; --tw-translate-y: 0; --tw-rotate: 0; --tw-skew-x: 0; --tw-skew-y: 0; --tw-scale-x: 1; --tw-scale-y: 1; --tw-pan-x: ; --tw-pan-y: ; --tw-pinch-zoom: ; --tw-scroll-snap-strictness: proximity; --tw-gradient-from-position: ; --tw-gradient-via-position: ; --tw-gradient-to-position: ; --tw-ordinal: ; --tw-slashed-zero: ; --tw-numeric-figure: ; --tw-numeric-spacing: ; --tw-numeric-fraction: ; --tw-ring-inset: ; --tw-ring-offset-width: 0px; --tw-ring-offset-color: #fff; --tw-ring-color: rgb(59 130 246 / .5); --tw-ring-offset-shadow: 0 0 #0000; --tw-ring-shadow: 0 0 #0000; --tw-shadow: 0 0 #0000; --tw-shadow-colored: 0 0 #0000; --tw-blur: ; --tw-brightness: ; --tw-contrast: ; --tw-grayscale: ; --tw-hue-rotate: ; --tw-invert: ; --tw-saturate: ; --tw-sepia: ; --tw-drop-shadow: ; --tw-backdrop-blur: ; --tw-backdrop-brightness: ; --tw-backdrop-contrast: ; --tw-backdrop-grayscale: ; --tw-backdrop-hue-rotate: ; --tw-backdrop-invert: ; --tw-backdrop-opacity: ; --tw-backdrop-saturate: ; --tw-backdrop-sepia: ; --tw-contain-size: ; --tw-contain-layout: ; --tw-contain-paint: ; --tw-contain-style: ; }
*, ::before, ::after { box-sizing: border-box; border-width: 0px; border-style: solid; border-color: rgb(229, 231, 235); }
img, svg, video, canvas, audio, iframe, embed, object { display: block; vertical-align: middle; }
.h-6 { height: 1.5rem; }
.w-auto { width: auto; }</style><svg aria-label="OpenAI" data-astro-cid-22hyrgsp="true" class="w-auto h-6 sm:h-9" data-icon="logos/open-ai">   <symbol id="ai:local:logos/open-ai" viewBox="0 0 1128 366"><path fill="currentColor" d="M121 63a120 120 0 0 0-85 204 120 120 0 0 0 169 0 120 120 0 0 0-84-204m0 196c-41 0-74-33-74-76s33-77 74-77 74 34 74 77-33 76-74 76m240-129c-21 0-42 8-53 23v-20h-43v232h43v-84c11 14 31 21 53 21 47 0 83-36 83-86s-36-86-83-86m-7 135a47 47 0 0 1-46-49 47 47 0 0 1 64-45 47 47 0 0 1 29 45 47 47 0 0 1-47 49m192-135c-47 0-84 37-84 86s32 86 85 86c44 0 72-26 80-55h-42c-5 12-20 21-38 21-22 0-39-16-43-38h125v-17c0-46-31-83-83-83m-42 69a43 43 0 0 1 43-35c22 0 39 15 41 35zm240-69c-19 0-39 8-48 23v-20h-44v166h44v-89c0-26 14-43 36-43 21 0 32 16 32 38v94h44V198c0-41-26-68-64-68m174-64-94 233h46l20-51h107l20 51h47L971 66zm-13 144 39-98 38 98zm220-144h-43v233h43z"/></symbol><use href="#ai:local:logos/open-ai"/>  </svg></svg>