<svg width="15em" height="1em" style="" version="1.1" xmlns="http://www.w3.org/2000/svg" xmlns:xlink="http://www.w3.org/1999/xlink"><style  type="text/css">*, ::before, ::after { --tw-border-spacing-x: 0; --tw-border-spacing-y: 0; --tw-translate-x: 0; --tw-translate-y: 0; --tw-rotate: 0; --tw-skew-x: 0; --tw-skew-y: 0; --tw-scale-x: 1; --tw-scale-y: 1; --tw-pan-x: ; --tw-pan-y: ; --tw-pinch-zoom: ; --tw-scroll-snap-strictness: proximity; --tw-gradient-from-position: ; --tw-gradient-via-position: ; --tw-gradient-to-position: ; --tw-ordinal: ; --tw-slashed-zero: ; --tw-numeric-figure: ; --tw-numeric-spacing: ; --tw-numeric-fraction: ; --tw-ring-inset: ; --tw-ring-offset-width: 0px; --tw-ring-offset-color: #fff; --tw-ring-color: rgb(59 130 246 / .5); --tw-ring-offset-shadow: 0 0 #0000; --tw-ring-shadow: 0 0 #0000; --tw-shadow: 0 0 #0000; --tw-shadow-colored: 0 0 #0000; --tw-blur: ; --tw-brightness: ; --tw-contrast: ; --tw-grayscale: ; --tw-hue-rotate: ; --tw-invert: ; --tw-saturate: ; --tw-sepia: ; --tw-drop-shadow: ; --tw-backdrop-blur: ; --tw-backdrop-brightness: ; --tw-backdrop-contrast: ; --tw-backdrop-grayscale: ; --tw-backdrop-hue-rotate: ; --tw-backdrop-invert: ; --tw-backdrop-opacity: ; --tw-backdrop-saturate: ; --tw-backdrop-sepia: ; --tw-contain-size: ; --tw-contain-layout: ; --tw-contain-paint: ; --tw-contain-style: ; }
*, ::before, ::after { box-sizing: border-box; border-width: 0px; border-style: solid; border-color: rgb(229, 231, 235); }
img, svg, video, canvas, audio, iframe, embed, object { display: block; vertical-align: middle; }
.h-2 { height: 0.5rem; }
.w-auto { width: auto; }</style><svg aria-label="Porsche" data-astro-cid-22hyrgsp="true" class="w-auto h-2 sm:h-3.5" data-icon="logos/porsche">   <symbol id="ai:local:logos/porsche" viewBox="0 0 4500 300"><path fill="currentColor" d="M502 221c48 0 74-26 74-74V74c0-48-26-74-74-74H0v300h68v-79zm6-143v65q0 12-12 12H68V66h428q12 0 12 12m228 222c-48 0-74-26-74-74V74c0-48 26-74 74-74h417c48 0 74 26 74 74v152c0 48-26 74-74 74zm411-66q12 0 12-12V78q0-12-12-12H742q-12 0-12 12v144q0 12 12 12zm675-36c40 17 68 56 68 102h-68c0-54-25-79-79-79h-361v79h-68V0h502c48 0 74 26 74 74v50c0 46-24 72-68 74m-12-43q12 0 12-12V78q0-12-12-12h-428v89zm162-81c0-48 26-74 74-74h492v56h-486q-12 0-12 12v42q0 12 12 12h422c48 0 74 26 74 74v30c0 48-26 74-74 74h-492v-56h486q12 0 12-12v-42q0-12-12-12h-422c-48 0-74-26-74-74zm661 0c0-48 26-74 74-74h480v66h-474q-12 0-12 12v144q0 12 12 12h474v66h-480c-48 0-74-26-74-74zM3817 0v300h-68V183h-407v117h-68V0h68v117h407V0zm156 56v66h527v56h-527v66h527v56h-595V0h595v56z"/></symbol><use href="#ai:local:logos/porsche"/>  </svg></svg>