<svg width="3.93em" height="1em" style="" version="1.1" xmlns="http://www.w3.org/2000/svg" xmlns:xlink="http://www.w3.org/1999/xlink"><style  type="text/css">*, ::before, ::after { --tw-border-spacing-x: 0; --tw-border-spacing-y: 0; --tw-translate-x: 0; --tw-translate-y: 0; --tw-rotate: 0; --tw-skew-x: 0; --tw-skew-y: 0; --tw-scale-x: 1; --tw-scale-y: 1; --tw-pan-x: ; --tw-pan-y: ; --tw-pinch-zoom: ; --tw-scroll-snap-strictness: proximity; --tw-gradient-from-position: ; --tw-gradient-via-position: ; --tw-gradient-to-position: ; --tw-ordinal: ; --tw-slashed-zero: ; --tw-numeric-figure: ; --tw-numeric-spacing: ; --tw-numeric-fraction: ; --tw-ring-inset: ; --tw-ring-offset-width: 0px; --tw-ring-offset-color: #fff; --tw-ring-color: rgb(59 130 246 / .5); --tw-ring-offset-shadow: 0 0 #0000; --tw-ring-shadow: 0 0 #0000; --tw-shadow: 0 0 #0000; --tw-shadow-colored: 0 0 #0000; --tw-blur: ; --tw-brightness: ; --tw-contrast: ; --tw-grayscale: ; --tw-hue-rotate: ; --tw-invert: ; --tw-saturate: ; --tw-sepia: ; --tw-drop-shadow: ; --tw-backdrop-blur: ; --tw-backdrop-brightness: ; --tw-backdrop-contrast: ; --tw-backdrop-grayscale: ; --tw-backdrop-hue-rotate: ; --tw-backdrop-invert: ; --tw-backdrop-opacity: ; --tw-backdrop-saturate: ; --tw-backdrop-sepia: ; --tw-contain-size: ; --tw-contain-layout: ; --tw-contain-paint: ; --tw-contain-style: ; }
*, ::before, ::after { box-sizing: border-box; border-width: 0px; border-style: solid; border-color: rgb(229, 231, 235); }
img, svg, video, canvas, audio, iframe, embed, object { display: block; vertical-align: middle; }
.h-4 { height: 1rem; }
.w-auto { width: auto; }</style><svg aria-label="Proton" data-astro-cid-22hyrgsp="true" class="w-auto h-4 sm:h-6" data-icon="logos/proton">   <symbol id="ai:local:logos/proton" viewBox="0 0 1965 500"><path fill="currentColor" d="M406 492V297c0-80 46-143 139-143 15 0 30 1 45 5v80l-24-1c-49 0-71 23-71 69v185zm210-166c0-97 74-172 177-172s177 74 177 172c0 99-74 174-177 174s-177-76-177-174m266 0c0-55-37-95-89-95-51 0-88 40-88 95 0 57 37 96 88 96 52 0 89-39 89-96m347-94h-96v123c0 43 15 63 60 63l28-1v73c-19 5-35 8-52 8-75 0-126-45-126-131V232h-60v-71h15a45 45 0 0 0 45-45V49h90v112h96zm27 94c0-97 74-172 177-172 102 0 176 74 176 172 0 99-74 174-176 174-103 0-177-76-177-174m265 0c0-55-37-95-88-95-52 0-89 40-89 95 0 57 37 96 89 96 51 0 88-39 88-96m135 166V304c0-88 55-150 155-150 98 0 154 62 154 150v188h-89V311c0-49-22-79-65-79-44 0-66 30-66 79v181zM2 364v128h90V369a45 45 0 0 1 45-45h92a162 162 0 0 0 0-324H2v160h90V85h131a77 77 0 0 1 0 153h-95A125 125 0 0 0 2 364"/></symbol><use href="#ai:local:logos/proton"/>  </svg></svg>