<svg width="3.08em" height="1em" style="" version="1.1" xmlns="http://www.w3.org/2000/svg" xmlns:xlink="http://www.w3.org/1999/xlink"><style  type="text/css">*, ::before, ::after { --tw-border-spacing-x: 0; --tw-border-spacing-y: 0; --tw-translate-x: 0; --tw-translate-y: 0; --tw-rotate: 0; --tw-skew-x: 0; --tw-skew-y: 0; --tw-scale-x: 1; --tw-scale-y: 1; --tw-pan-x: ; --tw-pan-y: ; --tw-pinch-zoom: ; --tw-scroll-snap-strictness: proximity; --tw-gradient-from-position: ; --tw-gradient-via-position: ; --tw-gradient-to-position: ; --tw-ordinal: ; --tw-slashed-zero: ; --tw-numeric-figure: ; --tw-numeric-spacing: ; --tw-numeric-fraction: ; --tw-ring-inset: ; --tw-ring-offset-width: 0px; --tw-ring-offset-color: #fff; --tw-ring-color: rgb(59 130 246 / .5); --tw-ring-offset-shadow: 0 0 #0000; --tw-ring-shadow: 0 0 #0000; --tw-shadow: 0 0 #0000; --tw-shadow-colored: 0 0 #0000; --tw-blur: ; --tw-brightness: ; --tw-contrast: ; --tw-grayscale: ; --tw-hue-rotate: ; --tw-invert: ; --tw-saturate: ; --tw-sepia: ; --tw-drop-shadow: ; --tw-backdrop-blur: ; --tw-backdrop-brightness: ; --tw-backdrop-contrast: ; --tw-backdrop-grayscale: ; --tw-backdrop-hue-rotate: ; --tw-backdrop-invert: ; --tw-backdrop-opacity: ; --tw-backdrop-saturate: ; --tw-backdrop-sepia: ; --tw-contain-size: ; --tw-contain-layout: ; --tw-contain-paint: ; --tw-contain-style: ; }
*, ::before, ::after { box-sizing: border-box; border-width: 0px; border-style: solid; border-color: rgb(229, 231, 235); }
img, svg, video, canvas, audio, iframe, embed, object { display: block; vertical-align: middle; }
.h-4 { height: 1rem; }
.w-auto { width: auto; }</style><svg aria-label="Visa" data-astro-cid-22hyrgsp="true" class="w-auto h-4 sm:h-6" data-icon="logos/visa">   <symbol id="ai:local:logos/visa" viewBox="0 0 1000 325"><path fill="currentColor" d="M651 1c-71 0-134 36-134 104 0 78 112 83 112 123 0 16-19 31-51 31-46 0-80-21-80-21l-14 69s39 17 91 17c78 0 139-38 139-107 0-83-113-88-113-124 0-13 15-27 48-27 36 0 66 15 66 15l14-67S697 1 651 1M2 6l-1 9s29 6 56 17c35 12 37 20 43 42l64 245h85L380 6h-85l-84 213-35-181c-3-21-19-33-38-33H2Zm412 0-67 313h81L495 6zm452 0c-20 0-30 10-38 28L710 319h85l16-47h104l10 47h75L934 6zm11 84 25 118h-67z"/></symbol><use href="#ai:local:logos/visa"/>  </svg></svg>